<svg width="128" height="128" viewBox="0 0 128 128" fill="none" xmlns="http://www.w3.org/2000/svg">
<path d="M63.3912 84.447C85.6414 84.447 103.679 66.4096 103.679 44.1593C103.679 21.9091 85.6414 3.8717 63.3912 3.8717C41.1409 3.8717 23.1035 21.9091 23.1035 44.1593C23.1035 66.4096 41.1409 84.447 63.3912 84.447Z" stroke="black" stroke-width="0.946184"/>
<path d="M20.2981 57.9955C24.8184 62.8114 30.29 55.7046 37.6416 50.0765C48.2626 41.9455 64.5451 55.2898 81.3119 54.8738C94.8843 54.537 98.2543 46.5854 105.685 46.6096C107.544 46.6161 108.317 48.3814 107.167 49.5468" stroke="black" stroke-width="0.946184" stroke-linecap="round"/>
<path d="M105.592 58.1592C107.037 59.2437 105.101 62.7155 102.331 63.2619C99.5611 63.8084 90.3113 63.5232 81.5148 65.7767C72.7182 68.0301 59.6806 76.1132 53.4688 76.2197C47.2571 76.3261 44.2035 73.8183 43.7243 70.1774C43.2451 66.5365 47.1576 62.7939 51.1287 61.5855C55.0999 60.3771 58.3 61.2666 58.123 64.0405C57.946 66.8145 54.7714 70.4018 51.7304 71.5661C48.6895 72.7305 44.6131 72.4112 43.9997 69.2059C43.3862 66.0007 43.5259 65.4891 43.6113 64.6917" stroke="black" stroke-width="0.946184" stroke-linecap="round"/>
<path d="M32.1004 112.841C31.8963 112.841 31.7292 112.785 31.5993 112.674C31.4694 112.562 31.358 112.405 31.2652 112.2L23.275 93.6031C23.2194 93.4361 23.2008 93.3062 23.2194 93.2134C23.2565 93.102 23.3214 93.0185 23.4142 92.9628C23.5256 92.9071 23.6462 92.8793 23.7762 92.8793C23.9432 92.8793 24.0731 92.9257 24.1659 93.0185C24.2587 93.0927 24.3423 93.2041 24.4165 93.3526L32.4345 112.006H31.7942L39.7843 93.3526C39.8586 93.2041 39.9421 93.0927 40.0349 93.0185C40.1463 92.9257 40.2855 92.8793 40.4525 92.8793C40.601 92.8793 40.7123 92.9164 40.7866 92.9906C40.8794 93.0463 40.9351 93.1299 40.9536 93.2412C40.9722 93.334 40.9536 93.4547 40.8979 93.6031L32.9078 112.2C32.8335 112.405 32.7315 112.562 32.6015 112.674C32.4716 112.785 32.3046 112.841 32.1004 112.841ZM45.1854 112.841C44.9998 112.841 44.8606 112.804 44.7678 112.729C44.675 112.655 44.6286 112.553 44.6286 112.423C44.6286 112.275 44.6657 112.117 44.7399 111.95L52.7022 93.4639C52.795 93.2598 52.9064 93.1113 53.0363 93.0185C53.1662 92.9257 53.2962 92.8793 53.4261 92.8793C53.5746 92.8793 53.7138 92.9257 53.8437 93.0185C53.9736 93.1113 54.0757 93.2598 54.1499 93.4639L62.1122 111.95C62.1865 112.117 62.2236 112.275 62.2236 112.423C62.2236 112.553 62.1865 112.655 62.1122 112.729C62.038 112.804 61.9081 112.841 61.7225 112.841C61.5369 112.841 61.3791 112.785 61.2492 112.674C61.1378 112.562 61.045 112.423 60.9708 112.256L58.7157 106.994L59.4674 107.245H47.3291L48.1086 106.994L45.8535 112.256C45.7793 112.46 45.6772 112.609 45.5473 112.702C45.4174 112.794 45.2967 112.841 45.1854 112.841ZM53.3982 94.6332L48.4148 106.326L47.8023 106.159H58.9941L58.4373 106.326L53.4539 94.6332H53.3982ZM75.3642 112.896C74.4362 112.896 73.5546 112.813 72.7194 112.646C71.8842 112.479 71.1047 112.238 70.3808 111.922C69.6755 111.607 69.0352 111.217 68.4598 110.753C68.3299 110.641 68.2371 110.521 68.1814 110.391C68.1443 110.261 68.1443 110.14 68.1814 110.029C68.2371 109.899 68.3114 109.797 68.4042 109.723C68.497 109.648 68.6083 109.611 68.7382 109.611C68.8682 109.611 68.9981 109.667 69.128 109.778C70.0003 110.465 70.9191 110.966 71.8842 111.282C72.8679 111.597 74.0279 111.755 75.3642 111.755C77.2202 111.755 78.6123 111.384 79.5403 110.641C80.4868 109.899 80.9601 108.915 80.9601 107.69C80.9601 106.688 80.6168 105.909 79.93 105.352C79.2433 104.776 78.1204 104.331 76.5614 104.015L73.8052 103.459C72.0605 103.106 70.7613 102.521 69.9075 101.705C69.0538 100.888 68.6269 99.7837 68.6269 98.3917C68.6269 97.5565 68.7846 96.8048 69.1002 96.1366C69.4342 95.4499 69.8983 94.8652 70.4922 94.3827C71.0861 93.8815 71.7914 93.5011 72.608 93.2412C73.4247 92.9628 74.3249 92.8236 75.3086 92.8236C76.5335 92.8236 77.6564 93.0092 78.6772 93.3804C79.698 93.7331 80.626 94.2899 81.4613 95.0508C81.5912 95.1622 81.6747 95.2921 81.7118 95.4406C81.7489 95.5705 81.7397 95.7004 81.684 95.8304C81.6469 95.9417 81.5819 96.0345 81.4891 96.1088C81.4148 96.1644 81.3128 96.1923 81.1828 96.1923C81.0529 96.1923 80.923 96.1273 80.7931 95.9974C79.995 95.2921 79.1505 94.7817 78.2596 94.4662C77.3687 94.1321 76.385 93.9651 75.3085 93.9651C74.2135 93.9651 73.2576 94.1507 72.441 94.5219C71.6243 94.8745 70.984 95.3849 70.52 96.0531C70.0746 96.7213 69.8519 97.5008 69.8519 98.3917C69.8519 99.4682 70.1674 100.322 70.7984 100.953C71.4295 101.565 72.4503 102.011 73.8609 102.289L76.617 102.846C78.5102 103.236 79.9115 103.811 80.8209 104.572C81.7304 105.315 82.1851 106.345 82.1851 107.662C82.1851 108.442 82.0273 109.157 81.7118 109.806C81.3963 110.437 80.9416 110.985 80.3476 111.449C79.7723 111.913 79.0577 112.275 78.2039 112.535C77.3687 112.776 76.4222 112.896 75.3642 112.896ZM90.2866 112.674C90.0639 112.674 89.8876 112.618 89.7577 112.507C89.6463 112.377 89.5906 112.2 89.5906 111.978V93.7423C89.5906 93.5196 89.6463 93.3526 89.7577 93.2412C89.8876 93.1113 90.0639 93.0463 90.2866 93.0463H100.977C101.163 93.0463 101.302 93.0927 101.395 93.1855C101.506 93.2783 101.562 93.4083 101.562 93.5753C101.562 93.7609 101.506 93.9001 101.395 93.9929C101.302 94.0857 101.163 94.1321 100.977 94.1321H90.7599V102.178H100.42C100.606 102.178 100.745 102.224 100.838 102.317C100.949 102.41 101.005 102.54 101.005 102.707C101.005 102.893 100.949 103.032 100.838 103.125C100.745 103.217 100.606 103.264 100.42 103.264H90.7599V111.588H100.977C101.163 111.588 101.302 111.634 101.395 111.727C101.506 111.82 101.562 111.95 101.562 112.117C101.562 112.303 101.506 112.442 101.395 112.535C101.302 112.627 101.163 112.674 100.977 112.674H90.2866Z" fill="black"/>
<path d="M40.0505 124.601C39.7659 124.601 39.4875 124.58 39.2153 124.536C38.943 124.493 38.6863 124.428 38.445 124.342C38.2037 124.249 37.9872 124.137 37.7954 124.007C37.7026 123.939 37.6376 123.862 37.6005 123.775C37.5696 123.689 37.5603 123.605 37.5727 123.525C37.5912 123.438 37.6284 123.364 37.684 123.302C37.7397 123.24 37.8078 123.203 37.8882 123.191C37.9686 123.172 38.0583 123.197 38.1573 123.265C38.4357 123.444 38.7296 123.577 39.0389 123.664C39.3483 123.744 39.6855 123.785 40.0505 123.785C40.5763 123.785 40.963 123.692 41.2105 123.506C41.4641 123.315 41.591 123.067 41.591 122.764C41.591 122.516 41.5013 122.322 41.3218 122.179C41.1424 122.031 40.8424 121.913 40.4217 121.827L39.4287 121.622C38.841 121.499 38.4017 121.295 38.1109 121.01C37.8263 120.725 37.684 120.342 37.684 119.859C37.684 119.568 37.7428 119.302 37.8604 119.061C37.9841 118.82 38.1542 118.613 38.3708 118.439C38.5873 118.26 38.8472 118.124 39.1503 118.031C39.4535 117.938 39.7844 117.892 40.1433 117.892C40.5268 117.892 40.8857 117.941 41.2198 118.04C41.56 118.139 41.8632 118.291 42.1292 118.495C42.2096 118.551 42.2622 118.622 42.287 118.708C42.3179 118.789 42.3241 118.869 42.3055 118.95C42.2932 119.03 42.2591 119.098 42.2035 119.154C42.1478 119.21 42.0766 119.244 41.99 119.256C41.9034 119.262 41.8075 119.231 41.7023 119.163C41.4611 119.002 41.2136 118.888 40.9599 118.82C40.7125 118.746 40.4372 118.708 40.134 118.708C39.8309 118.708 39.5648 118.755 39.3359 118.848C39.1132 118.94 38.94 119.07 38.8162 119.237C38.6987 119.405 38.6399 119.602 38.6399 119.831C38.6399 120.091 38.7234 120.298 38.8905 120.453C39.0575 120.608 39.3359 120.725 39.7257 120.806L40.7094 121.01C41.328 121.14 41.789 121.341 42.0921 121.613C42.3953 121.885 42.5468 122.247 42.5468 122.699C42.5468 122.99 42.4881 123.253 42.3705 123.488C42.253 123.717 42.0859 123.915 41.8694 124.082C41.6529 124.249 41.3899 124.379 41.0806 124.471C40.7774 124.558 40.434 124.601 40.0505 124.601ZM49.0614 124.583C48.9068 124.583 48.7861 124.539 48.6995 124.453C48.6191 124.366 48.5789 124.246 48.5789 124.091V118.783H46.6115C46.4816 118.783 46.3795 118.749 46.3053 118.681C46.231 118.606 46.1939 118.504 46.1939 118.374C46.1939 118.244 46.231 118.145 46.3053 118.077C46.3795 118.009 46.4816 117.975 46.6115 117.975H51.5021C51.6382 117.975 51.7434 118.009 51.8176 118.077C51.8919 118.145 51.929 118.244 51.929 118.374C51.929 118.504 51.8919 118.606 51.8176 118.681C51.7434 118.749 51.6382 118.783 51.5021 118.783H49.5347V124.091C49.5347 124.246 49.4945 124.366 49.4141 124.453C49.3398 124.539 49.2223 124.583 49.0614 124.583ZM58.7777 124.601C58.3384 124.601 57.9518 124.546 57.6177 124.434C57.2836 124.317 57.0021 124.144 56.7732 123.915C56.5505 123.686 56.3803 123.401 56.2628 123.061C56.1452 122.721 56.0865 122.328 56.0865 121.882V118.393C56.0865 118.232 56.1267 118.111 56.2071 118.031C56.2937 117.951 56.4144 117.91 56.569 117.91C56.7237 117.91 56.8412 117.951 56.9217 118.031C57.0083 118.111 57.0516 118.232 57.0516 118.393V121.864C57.0516 122.501 57.197 122.977 57.4878 123.293C57.7847 123.608 58.2147 123.766 58.7777 123.766C59.3469 123.766 59.7769 123.608 60.0676 123.293C60.3584 122.977 60.5038 122.501 60.5038 121.864V118.393C60.5038 118.232 60.544 118.111 60.6244 118.031C60.7111 117.951 60.8286 117.91 60.9771 117.91C61.1317 117.91 61.2493 117.951 61.3297 118.031C61.4101 118.111 61.4504 118.232 61.4504 118.393V121.882C61.4504 122.476 61.3483 122.977 61.1441 123.386C60.9461 123.788 60.6492 124.091 60.2532 124.295C59.8573 124.499 59.3654 124.601 58.7777 124.601ZM66.9349 124.518C66.7679 124.518 66.6379 124.475 66.5451 124.388C66.4585 124.295 66.4152 124.165 66.4152 123.998V118.495C66.4152 118.328 66.4585 118.201 66.5451 118.115C66.6379 118.022 66.7679 117.975 66.9349 117.975H68.726C69.8024 117.975 70.6315 118.257 71.213 118.82C71.8008 119.377 72.0946 120.184 72.0946 121.242C72.0946 121.768 72.0204 122.235 71.8719 122.643C71.7234 123.052 71.5038 123.395 71.213 123.673C70.9284 123.946 70.5789 124.156 70.1644 124.304C69.7499 124.447 69.2704 124.518 68.726 124.518H66.9349ZM67.3803 123.71H68.6703C69.0786 123.71 69.4312 123.661 69.7282 123.562C70.0314 123.457 70.285 123.302 70.4892 123.098C70.6933 122.894 70.8449 122.637 70.9439 122.328C71.0429 122.018 71.0924 121.656 71.0924 121.242C71.0924 120.419 70.8882 119.804 70.4799 119.395C70.0778 118.987 69.4745 118.783 68.6703 118.783H67.3803V123.71ZM77.3471 124.583C77.1925 124.583 77.0718 124.539 76.9852 124.453C76.9048 124.366 76.8646 124.246 76.8646 124.091V118.402C76.8646 118.241 76.9048 118.121 76.9852 118.04C77.0718 117.954 77.1925 117.91 77.3471 117.91C77.5018 117.91 77.6194 117.954 77.6998 118.04C77.7864 118.121 77.8297 118.241 77.8297 118.402V124.091C77.8297 124.246 77.7895 124.366 77.7091 124.453C77.6286 124.539 77.508 124.583 77.3471 124.583ZM85.6714 124.601C85.0527 124.601 84.5114 124.465 84.0474 124.193C83.5895 123.915 83.2338 123.525 82.9802 123.024C82.7327 122.516 82.609 121.923 82.609 121.242C82.609 120.728 82.6801 120.268 82.8224 119.859C82.9647 119.445 83.1689 119.092 83.4349 118.801C83.7009 118.504 84.0226 118.279 84.4 118.124C84.7774 117.969 85.2012 117.892 85.6714 117.892C86.2962 117.892 86.8376 118.028 87.2954 118.3C87.7532 118.572 88.1059 118.959 88.3533 119.46C88.607 119.961 88.7338 120.552 88.7338 121.233C88.7338 121.746 88.6627 122.21 88.5204 122.625C88.3781 123.039 88.1708 123.395 87.8986 123.692C87.6326 123.989 87.3109 124.215 86.9335 124.369C86.5561 124.524 86.1354 124.601 85.6714 124.601ZM85.6714 123.766C86.1045 123.766 86.4726 123.667 86.7757 123.469C87.0851 123.271 87.3201 122.984 87.481 122.606C87.648 122.229 87.7316 121.774 87.7316 121.242C87.7316 120.444 87.5521 119.825 87.1933 119.386C86.8345 118.947 86.3272 118.727 85.6714 118.727C85.2383 118.727 84.8671 118.826 84.5578 119.024C84.2546 119.216 84.0195 119.5 83.8525 119.878C83.6916 120.255 83.6112 120.71 83.6112 121.242C83.6112 122.034 83.7906 122.653 84.1494 123.098C84.5145 123.543 85.0218 123.766 85.6714 123.766Z" fill="black"/>
</svg>
